<svg 
	width="512"
	height="512"
	preserveAspectRatio="xMidYMid meet">
	<g
		transform="translate(0.000000,512.000000) scale(0.100000,-0.100000)"
		fill="#000000">
		<path d="M800 5106 c-312 -59 -562 -246 -700 -524 -44 -91 -66 -157 -86 -267
		-21 -120 -21 -3390 0 -3510 39 -213 131 -389 278 -531 147 -142 306 -222 513
		-260 120 -21 3390 -21 3510 0 213 39 389 131 531 278 142 147 222 306 260 513
		21 120 21 3390 0 3510 -28 150 -83 288 -163 399 -116 163 -310 305 -493 361
		-153 46 -112 45 -1900 44 -1273 -1 -1701 -4 -1750 -13z m3510 -400 c201 -67
		336 -205 397 -401 17 -57 18 -137 18 -1745 0 -1608 -1 -1688 -18 -1745 -61
		-199 -202 -340 -403 -402 -56 -17 -138 -18 -1744 -18 -1608 0 -1688 1 -1745
		18 -199 61 -340 202 -402 403 -17 56 -18 138 -18 1744 0 1608 1 1688 18 1745
		70 226 253 386 477 415 30 4 800 7 1710 6 1584 -1 1657 -2 1710 -20z"/>

		<path d="M3735 4191 c-22 -10 -50 -29 -61 -42 -12 -13 -365 -530 -784 -1149
		-419 -619 -766 -1129 -771 -1135 -6 -6 -146 127 -377 357 -374 375 -403 398
		-474 398 -64 -1 -110 -34 -274 -201 -141 -144 -162 -170 -172 -211 -12 -49 -8
		-96 14 -138 7 -14 273 -285 591 -602 650 -649 631 -633 768 -633 83 1 136 24
		196 88 50 53 1908 2793 1917 2827 12 48 5 106 -18 149 -19 33 -59 66 -206 166
		-100 68 -193 129 -208 135 -41 15 -96 12 -141 -9z"/>
	</g>
</svg>
